<?xml version="1.0" encoding="utf-8"?>
<!-- Generator: Adobe Illustrator 22.1.0, SVG Export Plug-In . SVG Version: 6.00 Build 0)  -->
<svg version="1.1" id="Artwork" xmlns="http://www.w3.org/2000/svg" xmlns:xlink="http://www.w3.org/1999/xlink" x="0px" y="0px"
	 viewBox="0 0 24 24" enable-background="new 0 0 24 24" xml:space="preserve">
<rect fill="#32373C" width="24" height="24"/>
<rect x="2" y="2" fill="#E5F5FA" width="20" height="2"/>
<path fill="#E5F5FA" d="M5.8,20h12.5c1.1-1.4,1.8-3.1,1.8-5c0-4.4-3.6-8-8-8s-8,3.6-8,8C4,16.9,4.7,18.6,5.8,20z M11,9
	c0-0.6,0.4-1,1-1s1,0.4,1,1c0,0.6-0.4,1-1,1S11,9.5,11,9z M6,11c0-0.6,0.4-1,1-1s1,0.4,1,1c0,0.6-0.4,1-1,1S6,11.6,6,11z M10.5,14.4
	c0.8-0.8,6.5-3.5,6.5-3.5s-2.7,5.7-3.5,6.5c-0.8,0.8-2.2,0.8-3,0C9.7,16.6,9.7,15.2,10.5,14.4z M5,16c0-0.6,0.4-1,1-1s1,0.4,1,1
	c0,0.6-0.4,1-1,1S5,16.5,5,16z M11,16c0-0.6,0.4-1,1-1s1,0.4,1,1c0,0.6-0.4,1-1,1S11,16.5,11,16z M17,16c0-0.6,0.5-1,1-1s1,0.4,1,1
	c0,0.6-0.5,1-1,1S17,16.5,17,16z"/>
</svg>
